<?xml version="1.0" encoding="UTF-8"?>
<svg fill="none" version="1.1" viewBox="0 0 173.8 31.67" xmlns="http://www.w3.org/2000/svg" xmlns:cc="http://creativecommons.org/ns#" xmlns:dc="http://purl.org/dc/elements/1.1/" xmlns:rdf="http://www.w3.org/1999/02/22-rdf-syntax-ns#">
 <title>OpenVPN logo</title>
 <path d="m21.692 16.371c0-2.7994-2.2857-5.0693-5.1762-5.0693-2.8915 0-5.1752 2.2611-5.1752 5.0693 0 1.0374 0.32326 2.0493 0.92503 2.8925a4.9424 4.8722 0 0 0 2.4309 1.8071l-2.0341 10.41h7.636l-1.9634-10.41c1.9625-0.75304 3.356-2.5121 3.356-4.7006z" fill="#1a3967" style="stroke-width:.98756"/>
 <path d="m32.897 16.295c0-8.7561-7.3137-15.868-16.308-15.868-8.9947 0-16.311 7.1049-16.311 15.868 0 5.8155 3.2107 10.876 7.995 13.602l1.0265-6.7833a9.5298 9.3944 0 0 1-2.4986-6.2793c0-5.2046 4.3546-9.4385 9.7068-9.4385 5.3512 0 9.7078 4.2339 9.7078 9.4395a9.5765 9.4405 0 0 1-2.4886 6.3538l1.0344 6.7833c4.8887-2.7288 8.1363-7.8599 8.1363-13.675m21.843 5.8155c3.2873 0 5.9182-2.5847 5.9182-5.7429 0-3.1573-2.6418-5.7302-5.9182-5.7302-3.2764 0-5.9172 2.5837-5.9172 5.741 0 3.1583 2.6408 5.7439 5.9182 5.7439v-0.01177zm0 4.6771c-5.9172 0-10.738-4.6653-10.738-10.445 0-5.7782 4.8211-10.444 10.738-10.444 5.9182 0 10.739 4.6653 10.739 10.444 0 5.7792-4.8221 10.445-10.739 10.445zm12.992-20.254v19.703a0.35211 0.3471 0 0 0 0.09847 0.26082 0.33719 0.3324 0 0 0 0.25861 0.09805h3.8175a0.33221 0.32749 0 0 0 0.25861-0.09805 0.34515 0.34024 0 0 0 0.09947-0.26082v-7.6079h4.098s5.7093-0.28631 5.7093-6.2812c0-5.9939-5.775-6.243-5.775-6.243h-8.2457c-0.17705 0-0.31928 0.14316-0.31928 0.42947zm7.451 2.6445s2.9989-0.070597 2.9989 3.1583c0 3.1583-2.9989 3.1583-2.9989 3.1583h-2.984v-6.0881c0-0.28631 0.21882-0.22062 0.21882-0.22062l2.7651-0.00687z" fill="#ea7d1f" style="stroke-width:.98756"/>
 <path d="m140.82 6.5361v19.703a0.33122 0.32651 0 0 0 0.0219 0.14022 0.32923 0.32455 0 0 0 0.33321 0.21866h3.8195a0.33321 0.32848 0 0 0 0.2596-0.09805 0.36006 0.35495 0 0 0 0.0776-0.11962 0.38593 0.38044 0 0 0 0.0209-0.1412v-7.6079h4.103s5.7113-0.28631 5.7113-6.2812c0-5.9939-5.7819-6.2077-5.7819-6.2077h-8.2457c-0.10743-0.035299-0.31929 0.10786-0.31929 0.39417zm7.452 2.6445s2.9979-0.070597 2.9979 3.1583c0 3.1583-2.9979 3.1583-2.9979 3.1583h-2.9919v-6.089c0-0.28631 0.21883-0.22062 0.21883-0.22062z" fill="#1a3967" style="stroke-width:.98756"/>
 <path d="m116.48 6.1067h-2.9283a0.33221 0.32749 0 0 0-0.33519 0.21866 0.3342 0.32946 0 0 0-0.0219 0.1412v12.237l-7.4519-12.597h-3.6464a0.45456 0.4481 0 0 0-0.29044 0.11766 0.47147 0.46477 0 0 0-0.14821 0.27749v19.702a0.34415 0.33926 0 0 0 0.21684 0.33828 0.3352 0.33044 0 0 0 0.14024 0.02157h2.9283a0.33023 0.32553 0 0 0 0.25761-0.10001 0.34216 0.3373 0 0 0 0.0974-0.25984v-14.139l8.5033 14.43 0.0397 0.07256h2.5314a0.32824 0.32357 0 0 0 0.25761-0.10001 0.32724 0.32259 0 0 0 0.0756-0.11864 0.33122 0.32651 0 0 0 0.0219-0.14022v-19.742a0.2974 0.29318 0 0 0-0.0397-0.23925 0.27651 0.27259 0 0 0-0.20789-0.1206z" fill="#ea7d1f" style="stroke-width:.98756"/>
 <path d="m172.84 6.1067h-2.9263c-0.14858-0.00856-0.2851 0.080492-0.3352 0.21866-0.0176 0.044609-0.0251 0.092463-0.0219 0.14021v12.239l-7.4509-12.597h-3.6494c-0.17112-0.015091-0.33288 0.079245-0.40185 0.23434-0.0231 0.050298-0.0355 0.10465-0.0368 0.15983v19.632c-9e-3 0.19888 0.15523 0.36342 0.35709 0.35691h2.9372c0.0962 0.0059 0.19031-0.02996 0.25762-0.09805 0.0687-0.06856 0.1049-0.1626 0.0994-0.25886v-14.07l8.565 14.431 0.0378 0.07256h2.5234c0.14833 0.0084 0.2845-0.08065 0.33421-0.21866 0.0176-0.0446 0.0251-0.09247 0.0219-0.14022v-19.744c7e-3 -0.09054-0.0225-0.18017-0.0826-0.24905-0.0603-0.067612-0.14642-0.10741-0.23771-0.10982m-42.463 20.168 7.452-19.705c0.0768-0.23509-0.10672-0.47393-0.35709-0.46477h-3.347c-0.15213-2.132e-4 -0.29094 0.085545-0.35708 0.22062l-4.8897 12.92-4.8897-12.925c-0.0636-0.13729-0.20401-0.22406-0.35708-0.22062h-3.353c-0.17762 8.156e-4 -0.32959 0.12593-0.36205 0.29808-0.011 0.055188-0.01 0.11207 4e-3 0.16669l7.5305 19.709c0.0662 0.13507 0.20493 0.22083 0.35707 0.22062h2.2609c0.13994-0.0094 0.26316-0.09431 0.32027-0.22062" fill="#1a3967" style="stroke-width:.98756"/>
 <path d="m84.472 26.203a0.34117 0.33632 0 0 0 0.09747 0.26082 0.33818 0.33338 0 0 0 0.25861 0.09805h13.808a0.33221 0.32749 0 0 0 0.25861-0.09805 0.34216 0.3373 0 0 0 0.09946-0.26082v-2.8651a0.34216 0.3373 0 0 0-0.35806-0.35887h-9.3428a0.32824 0.32357 0 0 1-0.25861-0.09805 0.35211 0.3471 0 0 1-0.09947-0.25886v-4.53a0.35708 0.35201 0 0 1 0.09947-0.25984 0.33122 0.32651 0 0 1 0.25861-0.09805h6.2096a0.33321 0.32848 0 0 0 0.3352-0.21866 0.34117 0.33632 0 0 0 0.02089-0.1412v-2.8651a0.34117 0.33632 0 0 0-0.09747-0.25984 0.33818 0.33338 0 0 0-0.25861-0.09904h-6.2096a0.32824 0.32357 0 0 1-0.25861-0.09805 0.35111 0.34612 0 0 1-0.09947-0.25886v-3.8486a0.35609 0.35103 0 0 1 0.09947-0.25984 0.33122 0.32651 0 0 1 0.25861-0.098052h9.3498a0.33122 0.32651 0 0 0 0.2586-0.10001 0.34216 0.3373 0 0 0 0.09947-0.25984v-2.8651a0.35211 0.3471 0 0 0-0.098475-0.26474 0.33321 0.32848 0 0 0-0.26458-0.098052h-13.806a0.33221 0.32749 0 0 0-0.26159 0.097072 0.34216 0.3373 0 0 0-0.09946 0.26082v19.846z" fill="#ea7d1f" style="stroke-width:.98756"/>
</svg>
